TITLE ""
FILE "LR_black_phrase_S05.mp3" MP3
  TRACK 01 AUDIO
    TITLE "LR_black_phrase_S05_001"
    INDEX 01 00:00:00
  TRACK 02 AUDIO
    TITLE "LR_black_phrase_S05_002"
    INDEX 01 00:00:14
  TRACK 03 AUDIO
    TITLE "LR_black_phrase_S05_003"
    INDEX 01 00:01:33
  TRACK 04 AUDIO
    TITLE "LR_black_phrase_S05_004"
    INDEX 01 00:01:72
  TRACK 05 AUDIO
    TITLE "LR_black_phrase_S05_005"
    INDEX 01 00:03:36
  TRACK 06 AUDIO
    TITLE "LR_black_phrase_S05_006"
    INDEX 01 00:04:37
  TRACK 07 AUDIO
    TITLE "LR_black_phrase_S05_007"
    INDEX 01 00:06:68
  TRACK 08 AUDIO
    TITLE "LR_black_phrase_S05_008"
    INDEX 01 00:07:32
  TRACK 09 AUDIO
    TITLE "LR_black_phrase_S05_009"
    INDEX 01 00:09:11
  TRACK 10 AUDIO
    TITLE "LR_black_phrase_S05_010"
    INDEX 01 00:09:43
  TRACK 11 AUDIO
    TITLE "LR_black_phrase_S05_011"
    INDEX 01 00:11:22
  TRACK 12 AUDIO
    TITLE "LR_black_phrase_S05_012"
    INDEX 01 00:12:25
  TRACK 13 AUDIO
    TITLE "LR_black_phrase_S05_013"
    INDEX 01 00:13:31
  TRACK 14 AUDIO
    TITLE "LR_black_phrase_S05_014"
    INDEX 01 00:13:70
  TRACK 15 AUDIO
    TITLE "LR_black_phrase_S05_015"
    INDEX 01 00:15:12
  TRACK 16 AUDIO
    TITLE "LR_black_phrase_S05_016"
    INDEX 01 00:16:11
  TRACK 17 AUDIO
    TITLE "LR_black_phrase_S05_017"
    INDEX 01 00:18:34
  TRACK 18 AUDIO
    TITLE "LR_black_phrase_S05_018"
    INDEX 01 00:18:71
  TRACK 19 AUDIO
    TITLE "LR_black_phrase_S05_019"
    INDEX 01 00:21:34
  TRACK 20 AUDIO
    TITLE "LR_black_phrase_S05_020"
    INDEX 01 00:21:65
  TRACK 21 AUDIO
    TITLE "LR_black_phrase_S05_021"
    INDEX 01 00:24:26
  TRACK 22 AUDIO
    TITLE "LR_black_phrase_S05_022"
    INDEX 01 00:25:26
  TRACK 23 AUDIO
    TITLE "LR_black_phrase_S05_023"
    INDEX 01 00:26:57
  TRACK 24 AUDIO
    TITLE "LR_black_phrase_S05_024"
    INDEX 01 00:27:19
  TRACK 25 AUDIO
    TITLE "LR_black_phrase_S05_025"
    INDEX 01 00:28:54
  TRACK 26 AUDIO
    TITLE "LR_black_phrase_S05_026"
    INDEX 01 00:29:51
  TRACK 27 AUDIO
    TITLE "LR_black_phrase_S05_027"
    INDEX 01 00:31:52
  TRACK 28 AUDIO
    TITLE "LR_black_phrase_S05_028"
    INDEX 01 00:32:12
  TRACK 29 AUDIO
    TITLE "LR_black_phrase_S05_029"
    INDEX 01 00:34:11
  TRACK 30 AUDIO
    TITLE "LR_black_phrase_S05_030"
    INDEX 01 00:34:29
  TRACK 31 AUDIO
    TITLE "LR_black_phrase_S05_031"
    INDEX 01 00:36:30
  TRACK 32 AUDIO
    TITLE "LR_black_phrase_S05_032"
    INDEX 01 00:37:23
  TRACK 33 AUDIO
    TITLE "LR_black_phrase_S05_033"
    INDEX 01 00:38:44
  TRACK 34 AUDIO
    TITLE "LR_black_phrase_S05_034"
    INDEX 01 00:39:04
  TRACK 35 AUDIO
    TITLE "LR_black_phrase_S05_035"
    INDEX 01 00:41:68
  TRACK 36 AUDIO
    TITLE "LR_black_phrase_S05_036"
    INDEX 01 00:43:02
  TRACK 37 AUDIO
    TITLE "LR_black_phrase_S05_037"
    INDEX 01 00:45:56
  TRACK 38 AUDIO
    TITLE "LR_black_phrase_S05_038"
    INDEX 01 00:46:14
  TRACK 39 AUDIO
    TITLE "LR_black_phrase_S05_039"
    INDEX 01 00:48:33
  TRACK 40 AUDIO
    TITLE "LR_black_phrase_S05_040"
    INDEX 01 00:48:52
  TRACK 41 AUDIO
    TITLE "LR_black_phrase_S05_041"
    INDEX 01 00:50:71
  TRACK 42 AUDIO
    TITLE "LR_black_phrase_S05_042"
    INDEX 01 00:51:70
  TRACK 43 AUDIO
    TITLE "LR_black_phrase_S05_043"
    INDEX 01 00:53:07
  TRACK 44 AUDIO
    TITLE "LR_black_phrase_S05_044"
    INDEX 01 00:53:48
  TRACK 45 AUDIO
    TITLE "LR_black_phrase_S05_045"
    INDEX 01 00:56:01
  TRACK 46 AUDIO
    TITLE "LR_black_phrase_S05_046"
    INDEX 01 00:56:73
  TRACK 47 AUDIO
    TITLE "LR_black_phrase_S05_047"
    INDEX 01 00:59:13
  TRACK 48 AUDIO
    TITLE "LR_black_phrase_S05_048"
    INDEX 01 00:59:52
  TRACK 49 AUDIO
    TITLE "LR_black_phrase_S05_049"
    INDEX 01 01:01:67
  TRACK 50 AUDIO
    TITLE "LR_black_phrase_S05_050"
    INDEX 01 01:02:19
  TRACK 51 AUDIO
    TITLE "LR_black_phrase_S05_051"
    INDEX 01 01:04:34
  TRACK 52 AUDIO
    TITLE "LR_black_phrase_S05_052"
    INDEX 01 01:05:37
  TRACK 53 AUDIO
    TITLE "LR_black_phrase_S05_053"
    INDEX 01 01:06:54
  TRACK 54 AUDIO
    TITLE "LR_black_phrase_S05_054"
    INDEX 01 01:07:20
  TRACK 55 AUDIO
    TITLE "LR_black_phrase_S05_055"
    INDEX 01 01:10:09
  TRACK 56 AUDIO
    TITLE "LR_black_phrase_S05_056"
    INDEX 01 01:11:08
  TRACK 57 AUDIO
    TITLE "LR_black_phrase_S05_057"
    INDEX 01 01:13:33
  TRACK 58 AUDIO
    TITLE "LR_black_phrase_S05_058"
    INDEX 01 01:13:72
  TRACK 59 AUDIO
    TITLE "LR_black_phrase_S05_059"
    INDEX 01 01:16:04
  TRACK 60 AUDIO
    TITLE "LR_black_phrase_S05_060"
    INDEX 01 01:16:35
  TRACK 61 AUDIO
    TITLE "LR_black_phrase_S05_061"
    INDEX 01 01:18:42
  TRACK 62 AUDIO
    TITLE "LR_black_phrase_S05_062"
    INDEX 01 01:19:41
  TRACK 63 AUDIO
    TITLE "LR_black_phrase_S05_063"
    INDEX 01 01:20:62
  TRACK 64 AUDIO
    TITLE "LR_black_phrase_S05_064"
    INDEX 01 01:21:24
  TRACK 65 AUDIO
    TITLE "LR_black_phrase_S05_065"
    INDEX 01 01:23:74
  TRACK 66 AUDIO
    TITLE "LR_black_phrase_S05_066"
    INDEX 01 01:24:74
  TRACK 67 AUDIO
    TITLE "LR_black_phrase_S05_067"
    INDEX 01 01:26:65
  TRACK 68 AUDIO
    TITLE "LR_black_phrase_S05_068"
    INDEX 01 01:27:25
  TRACK 69 AUDIO
    TITLE "LR_black_phrase_S05_069"
    INDEX 01 01:29:42
  TRACK 70 AUDIO
    TITLE "LR_black_phrase_S05_070"
    INDEX 01 01:29:63
  TRACK 71 AUDIO
    TITLE "LR_black_phrase_S05_071"
    INDEX 01 01:32:03
  TRACK 72 AUDIO
    TITLE "LR_black_phrase_S05_072"
    INDEX 01 01:32:75
  TRACK 73 AUDIO
    TITLE "LR_black_phrase_S05_073"
    INDEX 01 01:34:13
  TRACK 74 AUDIO
    TITLE "LR_black_phrase_S05_074"
    INDEX 01 01:34:49
  TRACK 75 AUDIO
    TITLE "LR_black_phrase_S05_075"
    INDEX 01 01:37:23
  TRACK 76 AUDIO
    TITLE "LR_black_phrase_S05_076"
    INDEX 01 01:38:17
  TRACK 77 AUDIO
    TITLE "LR_black_phrase_S05_077"
    INDEX 01 01:40:14
  TRACK 78 AUDIO
    TITLE "LR_black_phrase_S05_078"
    INDEX 01 01:40:49
  TRACK 79 AUDIO
    TITLE "LR_black_phrase_S05_079"
    INDEX 01 01:42:25
  TRACK 80 AUDIO
    TITLE "LR_black_phrase_S05_080"
    INDEX 01 01:42:44
  TRACK 81 AUDIO
    TITLE "LR_black_phrase_S05_081"
    INDEX 01 01:44:20
  TRACK 82 AUDIO
    TITLE "LR_black_phrase_S05_082"
    INDEX 01 01:45:19
  TRACK 83 AUDIO
    TITLE "LR_black_phrase_S05_083"
    INDEX 01 01:46:22
  TRACK 84 AUDIO
    TITLE "LR_black_phrase_S05_084"
    INDEX 01 01:46:62
  TRACK 85 AUDIO
    TITLE "LR_black_phrase_S05_085"
    INDEX 01 01:49:29
  TRACK 86 AUDIO
    TITLE "LR_black_phrase_S05_086"
    INDEX 01 01:50:28
  TRACK 87 AUDIO
    TITLE "LR_black_phrase_S05_087"
    INDEX 01 01:52:05
  TRACK 88 AUDIO
    TITLE "LR_black_phrase_S05_088"
    INDEX 01 01:52:45
  TRACK 89 AUDIO
    TITLE "LR_black_phrase_S05_089"
    INDEX 01 01:54:36
  TRACK 90 AUDIO
    TITLE "LR_black_phrase_S05_090"
    INDEX 01 01:54:65
  TRACK 91 AUDIO
    TITLE "LR_black_phrase_S05_091"
    INDEX 01 01:56:56
  TRACK 92 AUDIO
    TITLE "LR_black_phrase_S05_092"
    INDEX 01 01:57:59
  TRACK 93 AUDIO
    TITLE "LR_black_phrase_S05_093"
    INDEX 01 01:59:04
  TRACK 94 AUDIO
    TITLE "LR_black_phrase_S05_094"
    INDEX 01 01:59:39
  TRACK 95 AUDIO
    TITLE "LR_black_phrase_S05_095"
    INDEX 01 02:02:10
  TRACK 96 AUDIO
    TITLE "LR_black_phrase_S05_096"
    INDEX 01 02:03:09
  TRACK 97 AUDIO
    TITLE "LR_black_phrase_S05_097"
    INDEX 01 02:05:08
  TRACK 98 AUDIO
    TITLE "LR_black_phrase_S05_098"
    INDEX 01 02:05:47
  TRACK 99 AUDIO
    TITLE "LR_black_phrase_S05_099"
    INDEX 01 02:07:46
  TRACK 100 AUDIO
    TITLE "LR_black_phrase_S05_100"
    INDEX 01 02:08:01
  TRACK 101 AUDIO
    TITLE "LR_black_phrase_S05_101"
    INDEX 01 02:09:72
  TRACK 102 AUDIO
    TITLE "LR_black_phrase_S05_102"
    INDEX 01 02:10:72
  TRACK 103 AUDIO
    TITLE "LR_black_phrase_S05_103"
    INDEX 01 02:12:14
  TRACK 104 AUDIO
    TITLE "LR_black_phrase_S05_104"
    INDEX 01 02:12:49
  TRACK 105 AUDIO
    TITLE "LR_black_phrase_S05_105"
    INDEX 01 02:15:06
  TRACK 106 AUDIO
    TITLE "LR_black_phrase_S05_106"
    INDEX 01 02:16:08
  TRACK 107 AUDIO
    TITLE "LR_black_phrase_S05_107"
    INDEX 01 02:18:60
  TRACK 108 AUDIO
    TITLE "LR_black_phrase_S05_108"
    INDEX 01 02:19:20
  TRACK 109 AUDIO
    TITLE "LR_black_phrase_S05_109"
    INDEX 01 02:21:72
  TRACK 110 AUDIO
    TITLE "LR_black_phrase_S05_110"
    INDEX 01 02:22:16
  TRACK 111 AUDIO
    TITLE "LR_black_phrase_S05_111"
    INDEX 01 02:24:68
  TRACK 112 AUDIO
    TITLE "LR_black_phrase_S05_112"
    INDEX 01 02:25:66
  TRACK 113 AUDIO
    TITLE "LR_black_phrase_S05_113"
    INDEX 01 02:27:15
  TRACK 114 AUDIO
    TITLE "LR_black_phrase_S05_114"
    INDEX 01 02:27:53
  TRACK 115 AUDIO
    TITLE "LR_black_phrase_S05_115"
    INDEX 01 02:29:65
  TRACK 116 AUDIO
    TITLE "LR_black_phrase_S05_116"
    INDEX 01 02:30:69
  TRACK 117 AUDIO
    TITLE "LR_black_phrase_S05_117"
    INDEX 01 02:32:40
  TRACK 118 AUDIO
    TITLE "LR_black_phrase_S05_118"
    INDEX 01 02:32:75
  TRACK 119 AUDIO
    TITLE "LR_black_phrase_S05_119"
    INDEX 01 02:34:66
  TRACK 120 AUDIO
    TITLE "LR_black_phrase_S05_120"
    INDEX 01 02:35:21
  TRACK 121 AUDIO
    TITLE "LR_black_phrase_S05_121"
    INDEX 01 02:37:16
  TRACK 122 AUDIO
    TITLE "LR_black_phrase_S05_122"
    INDEX 01 02:38:19
  TRACK 123 AUDIO
    TITLE "LR_black_phrase_S05_123"
    INDEX 01 02:39:34
  TRACK 124 AUDIO
    TITLE "LR_black_phrase_S05_124"
    INDEX 01 02:39:72
  TRACK 125 AUDIO
    TITLE "LR_black_phrase_S05_125"
    INDEX 01 02:42:35
  TRACK 126 AUDIO
    TITLE "LR_black_phrase_S05_126"
    INDEX 01 02:43:34
  TRACK 127 AUDIO
    TITLE "LR_black_phrase_S05_127"
    INDEX 01 02:45:15
  TRACK 128 AUDIO
    TITLE "LR_black_phrase_S05_128"
    INDEX 01 02:45:55
  TRACK 129 AUDIO
    TITLE "LR_black_phrase_S05_129"
    INDEX 01 02:47:53
  TRACK 130 AUDIO
    TITLE "LR_black_phrase_S05_130"
    INDEX 01 02:48:06
  TRACK 131 AUDIO
    TITLE "LR_black_phrase_S05_131"
    INDEX 01 02:50:05
  TRACK 132 AUDIO
    TITLE "LR_black_phrase_S05_132"
    INDEX 01 02:51:10
  TRACK 133 AUDIO
    TITLE "LR_black_phrase_S05_133"
    INDEX 01 02:52:21
  TRACK 134 AUDIO
    TITLE "LR_black_phrase_S05_134"
    INDEX 01 02:52:62
  TRACK 135 AUDIO
    TITLE "LR_black_phrase_S05_135"
    INDEX 01 02:54:69
  TRACK 136 AUDIO
    TITLE "LR_black_phrase_S05_136"
    INDEX 01 02:55:67
  TRACK 137 AUDIO
    TITLE "LR_black_phrase_S05_137"
    INDEX 01 02:57:68
  TRACK 138 AUDIO
    TITLE "LR_black_phrase_S05_138"
    INDEX 01 02:58:30
  TRACK 139 AUDIO
    TITLE "LR_black_phrase_S05_139"
    INDEX 01 03:00:29
  TRACK 140 AUDIO
    TITLE "LR_black_phrase_S05_140"
    INDEX 01 03:00:56
  TRACK 141 AUDIO
    TITLE "LR_black_phrase_S05_141"
    INDEX 01 03:02:53
  TRACK 142 AUDIO
    TITLE "LR_black_phrase_S05_142"
    INDEX 01 03:03:52
  TRACK 143 AUDIO
    TITLE "LR_black_phrase_S05_143"
    INDEX 01 03:04:73
  TRACK 144 AUDIO
    TITLE "LR_black_phrase_S05_144"
    INDEX 01 03:05:38
  TRACK 145 AUDIO
    TITLE "LR_black_phrase_S05_145"
    INDEX 01 03:07:50
  TRACK 146 AUDIO
    TITLE "LR_black_phrase_S05_146"
    INDEX 01 03:08:44
  TRACK 147 AUDIO
    TITLE "LR_black_phrase_S05_147"
    INDEX 01 03:10:09
  TRACK 148 AUDIO
    TITLE "LR_black_phrase_S05_148"
    INDEX 01 03:10:45
  TRACK 149 AUDIO
    TITLE "LR_black_phrase_S05_149"
    INDEX 01 03:12:67
  TRACK 150 AUDIO
    TITLE "LR_black_phrase_S05_150"
    INDEX 01 03:13:14
  TRACK 151 AUDIO
    TITLE "LR_black_phrase_S05_151"
    INDEX 01 03:15:36
  TRACK 152 AUDIO
    TITLE "LR_black_phrase_S05_152"
    INDEX 01 03:16:30
  TRACK 153 AUDIO
    TITLE "LR_black_phrase_S05_153"
    INDEX 01 03:17:57
  TRACK 154 AUDIO
    TITLE "LR_black_phrase_S05_154"
    INDEX 01 03:18:17
  TRACK 155 AUDIO
    TITLE "LR_black_phrase_S05_155"
    INDEX 01 03:20:57
  TRACK 156 AUDIO
    TITLE "LR_black_phrase_S05_156"
    INDEX 01 03:21:54
  TRACK 157 AUDIO
    TITLE "LR_black_phrase_S05_157"
    INDEX 01 03:24:17
  TRACK 158 AUDIO
    TITLE "LR_black_phrase_S05_158"
    INDEX 01 03:24:49
  TRACK 159 AUDIO
    TITLE "LR_black_phrase_S05_159"
    INDEX 01 03:26:71
  TRACK 160 AUDIO
    TITLE "LR_black_phrase_S05_160"
    INDEX 01 03:27:14
  TRACK 161 AUDIO
    TITLE "LR_black_phrase_S05_161"
    INDEX 01 03:29:36
  TRACK 162 AUDIO
    TITLE "LR_black_phrase_S05_162"
    INDEX 01 03:30:36
  TRACK 163 AUDIO
    TITLE "LR_black_phrase_S05_163"
    INDEX 01 03:31:37
  TRACK 164 AUDIO
    TITLE "LR_black_phrase_S05_164"
    INDEX 01 03:32:03
  TRACK 165 AUDIO
    TITLE "LR_black_phrase_S05_165"
    INDEX 01 03:34:04
  TRACK 166 AUDIO
    TITLE "LR_black_phrase_S05_166"
    INDEX 01 03:35:03
  TRACK 167 AUDIO
    TITLE "LR_black_phrase_S05_167"
    INDEX 01 03:36:36
  TRACK 168 AUDIO
    TITLE "LR_black_phrase_S05_168"
    INDEX 01 03:36:75
  TRACK 169 AUDIO
    TITLE "LR_black_phrase_S05_169"
    INDEX 01 03:38:57
  TRACK 170 AUDIO
    TITLE "LR_black_phrase_S05_170"
    INDEX 01 03:39:13
  TRACK 171 AUDIO
    TITLE "LR_black_phrase_S05_171"
    INDEX 01 03:40:69
  TRACK 172 AUDIO
    TITLE "LR_black_phrase_S05_172"
    INDEX 01 03:41:75
  TRACK 173 AUDIO
    TITLE "LR_black_phrase_S05_173"
    INDEX 01 03:43:13
  TRACK 174 AUDIO
    TITLE "LR_black_phrase_S05_174"
    INDEX 01 03:43:52
  TRACK 175 AUDIO
    TITLE "LR_black_phrase_S05_175"
    INDEX 01 03:44:75
  TRACK 176 AUDIO
    TITLE "LR_black_phrase_S05_176"
    INDEX 01 03:45:74
  TRACK 177 AUDIO
    TITLE "LR_black_phrase_S05_177"
    INDEX 01 03:47:52
  TRACK 178 AUDIO
    TITLE "LR_black_phrase_S05_178"
    INDEX 01 03:48:16
  TRACK 179 AUDIO
    TITLE "LR_black_phrase_S05_179"
    INDEX 01 03:49:74
  TRACK 180 AUDIO
    TITLE "LR_black_phrase_S05_180"
    INDEX 01 03:50:27
  TRACK 181 AUDIO
    TITLE "LR_black_phrase_S05_181"
    INDEX 01 03:52:08
  TRACK 182 AUDIO
    TITLE "LR_black_phrase_S05_182"
    INDEX 01 03:53:07
  TRACK 183 AUDIO
    TITLE "LR_black_phrase_S05_183"
    INDEX 01 03:54:19
  TRACK 184 AUDIO
    TITLE "LR_black_phrase_S05_184"
    INDEX 01 03:54:50
  TRACK 185 AUDIO
    TITLE "LR_black_phrase_S05_185"
    INDEX 01 03:56:74
  TRACK 186 AUDIO
    TITLE "LR_black_phrase_S05_186"
    INDEX 01 03:57:74
  TRACK 187 AUDIO
    TITLE "LR_black_phrase_S05_187"
    INDEX 01 03:59:67
  TRACK 188 AUDIO
    TITLE "LR_black_phrase_S05_188"
    INDEX 01 04:00:27
  TRACK 189 AUDIO
    TITLE "LR_black_phrase_S05_189"
    INDEX 01 04:02:16
  TRACK 190 AUDIO
    TITLE "LR_black_phrase_S05_190"
    INDEX 01 04:02:40
  TRACK 191 AUDIO
    TITLE "LR_black_phrase_S05_191"
    INDEX 01 04:04:29
  TRACK 192 AUDIO
    TITLE "LR_black_phrase_S05_192"
    INDEX 01 04:05:26
  TRACK 193 AUDIO
    TITLE "LR_black_phrase_S05_193"
    INDEX 01 04:06:51
  TRACK 194 AUDIO
    TITLE "LR_black_phrase_S05_194"
    INDEX 01 04:07:03
  TRACK 195 AUDIO
    TITLE "LR_black_phrase_S05_195"
    INDEX 01 04:10:41
  TRACK 196 AUDIO
    TITLE "LR_black_phrase_S05_196"
    INDEX 01 04:11:40
  TRACK 197 AUDIO
    TITLE "LR_black_phrase_S05_197"
    INDEX 01 04:13:39
  TRACK 198 AUDIO
    TITLE "LR_black_phrase_S05_198"
    INDEX 01 04:13:75
  TRACK 199 AUDIO
    TITLE "LR_black_phrase_S05_199"
    INDEX 01 04:16:01
  TRACK 200 AUDIO
    TITLE "LR_black_phrase_S05_200"
    INDEX 01 04:16:16
  TRACK 201 AUDIO
    TITLE "LR_black_phrase_S05_201"
    INDEX 01 04:18:17
